<svg width="132" height="24" viewBox="0 0 132 24" fill="none" xmlns="http://www.w3.org/2000/svg">
<path d="M12.9542 6.47319V0H0V6.47319H12.9307C5.80203 6.47319 0.0235218 12.2517 0.0235218 19.3804H6.70213C6.70213 15.9415 9.49024 13.1518 12.9307 13.1518V19.4274H19.4039V6.47319H12.9542Z" fill="white"/>
<path d="M23.0212 4.21045H28.3951C29.9711 4.21045 31.1817 4.4441 32.0285 4.91297C32.5789 5.21091 33.0023 5.67036 33.2986 6.29604C33.5731 6.87625 33.7111 7.50349 33.7111 8.17935C33.7111 8.90069 33.5731 9.50442 33.2986 9.99053C33.0242 10.4766 32.5632 10.9283 31.9156 11.3454C32.7263 11.6574 33.3504 12.0448 33.7879 12.5042C34.4198 13.1738 34.735 14.0755 34.735 15.2139C34.735 16.3587 34.4418 17.276 33.8538 17.9675C33.2892 18.6356 32.3295 19.0668 30.9778 19.2612C30.2487 19.3726 29.3689 19.429 28.3356 19.429H23.0181V4.21045H23.0212ZM27.1344 10.1865H28.116C28.6429 10.1865 29.0569 10.0595 29.3533 9.80706C29.6512 9.55459 29.7986 9.2049 29.7986 8.75956C29.7986 8.31421 29.6496 7.96452 29.3533 7.71205C29.0569 7.45959 28.6429 7.33257 28.116 7.33257H27.1344V10.1865ZM27.1344 16.3053H28.3606C29.7657 16.3053 30.4682 15.8035 30.4682 14.7999C30.4682 13.8042 29.7657 13.3055 28.3606 13.3055H27.1344V16.3053Z" fill="white"/>
<path d="M36.5464 3.2959H40.5043V19.4271H36.5464V3.2959Z" fill="white"/>
<path d="M49.7812 9.08252H53.7157V15.068C53.7157 18.2262 51.8167 19.8053 48.0187 19.8053C46.1683 19.8053 44.7664 19.36 43.8161 18.4677C43.3849 18.0584 43.076 17.5927 42.8909 17.0689C42.7059 16.5452 42.6118 15.8787 42.6118 15.068V9.08252H46.5697V14.5113C46.5697 15.9603 47.1233 16.6847 48.2304 16.6847C49.2638 16.6847 49.7797 15.9603 49.7797 14.5113V9.08252H49.7812Z" fill="white"/>
<path d="M67.2375 15.2029H59.088C59.3483 16.4966 60.0837 17.1426 61.2959 17.1426C62.0172 17.1426 62.5551 16.8447 62.9126 16.2504H67.0713C66.7435 17.1944 66.2308 17.9408 65.533 18.4912C64.4039 19.3678 62.9424 19.8069 61.1516 19.8069C59.2793 19.8069 57.8257 19.2941 56.7923 18.2685C55.7965 17.2869 55.2979 15.965 55.2979 14.2996C55.2979 12.4869 55.9031 11.074 57.1153 10.0641C58.2083 9.15777 59.5819 8.70459 61.2394 8.70459C62.875 8.70459 64.2048 9.12014 65.2303 9.95281C65.9281 10.5252 66.4283 11.201 66.7294 11.982C67.0305 12.7613 67.1999 13.8355 67.2375 15.2029ZM63.2247 12.8946C63.0836 12.523 62.9017 12.2297 62.679 12.0133C62.2854 11.6338 61.8024 11.4457 61.23 11.4457C60.7612 11.4457 60.3566 11.5695 60.0147 11.8189C59.6729 12.0682 59.4126 12.4273 59.2338 12.8946H63.2247Z" fill="white"/>
<path d="M76.756 9.33804V12.9055C76.0048 12.3331 75.307 12.0477 74.6594 12.0477C74.0353 12.0477 73.5256 12.2406 73.132 12.6279C72.7087 13.0451 72.497 13.6127 72.497 14.3341C72.497 14.9503 72.6898 15.4521 73.0772 15.8395C73.4786 16.2566 73.9867 16.4636 74.6045 16.4636C75.2365 16.4636 75.9531 16.2033 76.756 15.6826V19.1388C75.8872 19.5841 74.9197 19.8084 73.8581 19.8084C72.2304 19.8084 70.9179 19.3175 69.9221 18.3375C68.8966 17.3198 68.3838 15.9822 68.3838 14.3247C68.3838 12.6828 68.9452 11.3186 70.0664 10.2334C71.1217 9.21573 72.4562 8.70609 74.0682 8.70609C75.0138 8.70295 75.9092 8.91465 76.756 9.33804Z" fill="white"/>
<path d="M78.6782 3.2959H82.6361V10.3085C83.105 9.86317 83.4939 9.53857 83.806 9.33942C84.4818 8.91603 85.2816 8.70433 86.202 8.70433C87.3844 8.70433 88.2798 9.04618 88.8882 9.72988C89.4982 10.4136 89.8024 11.4125 89.8024 12.7281V19.4287H85.8445V14.2335C85.8445 12.7767 85.3239 12.0491 84.2842 12.0491C83.185 12.0491 82.6346 12.7767 82.6346 14.2335V19.4287H78.6782V3.2959Z" fill="white"/>
<path d="M93.861 3.83105C94.4553 3.83105 94.9586 4.03805 95.371 4.45046C95.7835 4.86288 95.9904 5.36938 95.9904 5.97154C95.9904 6.5439 95.7803 7.03472 95.3601 7.44243C94.9398 7.85014 94.4412 8.05556 93.861 8.05556C93.2745 8.05556 92.7727 7.84701 92.3556 7.43146C91.9384 7.02218 91.7314 6.52508 91.7314 5.93704C91.7314 5.35684 91.94 4.86131 92.3556 4.44889C92.7727 4.03805 93.2745 3.83105 93.861 3.83105Z" fill="white"/>
<path d="M95.8461 9.08252H91.8882V19.4274H95.8461V9.08252Z" fill="white"/>
<path d="M97.9912 9.08251H101.726V9.99672C102.209 9.52785 102.692 9.19541 103.175 8.9994C103.658 8.80181 104.239 8.70459 104.914 8.70459C106.586 8.70459 107.869 9.28479 108.761 10.4436C109.572 11.499 109.976 12.8068 109.976 14.3671C109.976 15.965 109.501 17.2759 108.549 18.303C107.621 19.3066 106.412 19.8084 104.927 19.8084C103.745 19.8084 102.678 19.4289 101.728 18.6715V24H97.9928V9.08251H97.9912ZM103.654 12.0478C102.978 12.0478 102.445 12.2454 102.054 12.639C101.664 13.0326 101.469 13.572 101.469 14.2557C101.469 14.9394 101.664 15.4789 102.054 15.8725C102.445 16.266 102.981 16.4636 103.665 16.4636C104.341 16.4636 104.875 16.2692 105.27 15.8787C105.666 15.4883 105.862 14.9598 105.862 14.2902C105.862 13.5846 105.667 13.0342 105.277 12.6406C104.886 12.2438 104.345 12.0478 103.654 12.0478Z" fill="white"/>
<path d="M120.657 16.6629H115.562L114.648 19.4275H110.212L115.686 4.21045H120.323L125.986 19.4275H121.593L120.657 16.6629ZM119.599 13.4639L118.628 10.599C118.376 9.84783 118.178 9.0575 118.037 8.22483C117.933 9.04182 117.739 9.87449 117.457 10.7213L116.564 13.4639H119.599Z" fill="white"/>
<path d="M131.519 4.21045V19.4275H127.105V4.21045H131.519Z" fill="white"/>
</svg>
