<svg width="88" height="88" viewBox="0 0 88 88" fill="none" xmlns="http://www.w3.org/2000/svg">
<path fill-rule="evenodd" clip-rule="evenodd" d="M13 26C17.4183 26 21 22.4183 21 18C21 13.5817 17.4183 10 13 10C8.58172 10 5 13.5817 5 18C5 22.4183 8.58172 26 13 26ZM29 18C29 22.4183 32.5817 26 37 26L73 26C77.4183 26 81 22.4183 81 18C81 13.5817 77.4183 10 73 10H37C32.5817 10 29 13.5817 29 18ZM29 44C29 48.4183 32.5817 52 37 52L73 52C77.4183 52 81 48.4183 81 44C81 39.5817 77.4183 36 73 36L37 36C32.5817 36 29 39.5817 29 44ZM37 78C32.5817 78 29 74.4183 29 70C29 65.5817 32.5817 62 37 62H73C77.4183 62 81 65.5817 81 70C81 74.4183 77.4183 78 73 78H37ZM21 44C21 48.4183 17.4183 52 13 52C8.58172 52 5 48.4183 5 44C5 39.5817 8.58172 36 13 36C17.4183 36 21 39.5817 21 44ZM13 78C17.4183 78 21 74.4183 21 70C21 65.5817 17.4183 62 13 62C8.58172 62 5 65.5817 5 70C5 74.4183 8.58172 78 13 78Z" fill="url(#paint0_linear_723_3908)"/>
<g filter="url(#filter0_b_723_3908)">
<circle cx="72" cy="70" r="16" fill="url(#paint1_linear_723_3908)"/>
</g>
<defs>
<filter id="filter0_b_723_3908" x="44" y="42" width="56" height="56" filterUnits="userSpaceOnUse" color-interpolation-filters="sRGB">
<feFlood flood-opacity="0" result="BackgroundImageFix"/>
<feGaussianBlur in="BackgroundImageFix" stdDeviation="6"/>
<feComposite in2="SourceAlpha" operator="in" result="effect1_backgroundBlur_723_3908"/>
<feBlend mode="normal" in="SourceGraphic" in2="effect1_backgroundBlur_723_3908" result="shape"/>
</filter>
<linearGradient id="paint0_linear_723_3908" x1="63" y1="62" x2="8.5" y2="13.5" gradientUnits="userSpaceOnUse">
<stop offset="0.0422" stop-color="#7BEBFF"/>
<stop offset="0.9071" stop-color="#FFECA0"/>
</linearGradient>
<linearGradient id="paint1_linear_723_3908" x1="63.5" y1="56.25" x2="76.25" y2="78.5" gradientUnits="userSpaceOnUse">
<stop stop-color="white" stop-opacity="0.8"/>
<stop offset="1" stop-color="white" stop-opacity="0.36"/>
</linearGradient>
</defs>
</svg>
