<svg width="88" height="88" viewBox="0 0 88 88" fill="none" xmlns="http://www.w3.org/2000/svg">
<path fill-rule="evenodd" clip-rule="evenodd" d="M44 84C66.0914 84 84 66.0914 84 44C84 21.9086 66.0914 4 44 4C21.9086 4 4 21.9086 4 44C4 66.0914 21.9086 84 44 84ZM44 68C57.2548 68 68 57.2548 68 44C68 30.7452 57.2548 20 44 20C30.7452 20 20 30.7452 20 44C20 57.2548 30.7452 68 44 68Z" fill="url(#paint0_linear_723_3878)"/>
<g filter="url(#filter0_b_723_3878)">
<rect x="44" y="44" width="40" height="40" rx="8" fill="url(#paint1_linear_723_3878)"/>
</g>
<g filter="url(#filter1_b_723_3878)">
<rect x="4" y="4" width="32" height="32" rx="16" fill="url(#paint2_linear_723_3878)"/>
</g>
<defs>
<filter id="filter0_b_723_3878" x="32" y="32" width="64" height="64" filterUnits="userSpaceOnUse" color-interpolation-filters="sRGB">
<feFlood flood-opacity="0" result="BackgroundImageFix"/>
<feGaussianBlur in="BackgroundImageFix" stdDeviation="6"/>
<feComposite in2="SourceAlpha" operator="in" result="effect1_backgroundBlur_723_3878"/>
<feBlend mode="normal" in="SourceGraphic" in2="effect1_backgroundBlur_723_3878" result="shape"/>
</filter>
<filter id="filter1_b_723_3878" x="-8" y="-8" width="56" height="56" filterUnits="userSpaceOnUse" color-interpolation-filters="sRGB">
<feFlood flood-opacity="0" result="BackgroundImageFix"/>
<feGaussianBlur in="BackgroundImageFix" stdDeviation="6"/>
<feComposite in2="SourceAlpha" operator="in" result="effect1_backgroundBlur_723_3878"/>
<feBlend mode="normal" in="SourceGraphic" in2="effect1_backgroundBlur_723_3878" result="shape"/>
</filter>
<linearGradient id="paint0_linear_723_3878" x1="67" y1="68.4444" x2="7.50416" y2="20.7932" gradientUnits="userSpaceOnUse">
<stop offset="0.0422" stop-color="#7BEBFF"/>
<stop offset="0.9071" stop-color="#FFECA0"/>
</linearGradient>
<linearGradient id="paint1_linear_723_3878" x1="53.375" y1="46.8125" x2="69.3125" y2="74.625" gradientUnits="userSpaceOnUse">
<stop stop-color="white" stop-opacity="0.8"/>
<stop offset="1" stop-color="white" stop-opacity="0.36"/>
</linearGradient>
<linearGradient id="paint2_linear_723_3878" x1="11.5" y1="6.25" x2="24.25" y2="28.5" gradientUnits="userSpaceOnUse">
<stop stop-color="white" stop-opacity="0.8"/>
<stop offset="1" stop-color="white" stop-opacity="0.36"/>
</linearGradient>
</defs>
</svg>
