<svg width="72" height="76" viewBox="0 0 72 76" fill="none" xmlns="http://www.w3.org/2000/svg">
<path fill-rule="evenodd" clip-rule="evenodd" d="M21.6622 70.8549C21.4442 71.0729 21.2262 71.3151 21.0325 71.5573C20.3059 72.3565 19.0707 72.4534 18.2473 71.7268L3.44927 58.8424C2.60159 58.1158 2.52893 56.8565 3.23129 56.033L3.86099 55.3307C4.58757 54.5072 5.82276 54.4104 6.67044 55.1612L21.4684 68.0455C22.3161 68.7721 22.3888 70.0315 21.6622 70.8549Z" fill="#4EA869"/>
<path fill-rule="evenodd" clip-rule="evenodd" d="M14.832 75.5778C12.628 76.1832 10.2788 76.1106 8.14746 75.5051C7.05759 75.1903 5.67709 74.4879 4.53878 73.5434C0.881663 70.5161 -0.401961 66.5442 0.106645 62.766C0.324619 61.216 2.18951 60.5137 3.37625 61.5551L15.5828 72.1872C16.7453 73.2043 16.3578 75.1661 14.832 75.5778Z" fill="#4EA869"/>
<path fill-rule="evenodd" clip-rule="evenodd" d="M60.6292 8.15259C46.8484 -3.85993 25.8987 -2.43102 13.9102 11.3495C5.19121 21.3518 3.56852 35.1081 8.58192 46.4667C8.6788 46.8058 8.75145 47.1933 8.77567 47.6534C8.82411 48.3315 8.75145 49.3487 8.07331 50.6565C7.39517 51.4315 7.46783 52.6183 8.26707 53.2964L23.2588 66.3503C24.0338 67.0284 25.2206 66.9558 25.8987 66.1566L25.9472 66.1081C27.1339 65.2847 28.0785 65.0909 28.7566 65.0425C30.2098 64.9456 31.2028 65.4542 32.3653 65.5753C32.3895 65.5995 32.4137 65.5995 32.4379 65.5995C43.6999 67.8277 55.7854 64.1222 63.8504 54.8464C75.8632 41.0659 74.4342 20.1651 60.6292 8.15259ZM36.1919 53.5386C35.9255 53.8292 35.6107 54.023 35.2716 54.1441C34.1817 54.6284 32.8739 54.4347 31.9778 53.5628L17.0102 38.9104C15.8235 37.7479 15.8235 35.8347 16.986 34.6722L21.4666 30.2401C22.6049 29.1018 24.4698 29.1018 25.6323 30.1917L32.0746 36.3433C33.2372 37.4573 35.1263 37.4331 36.2646 36.2706L53.0728 19.3174L53.1212 19.269C54.2838 18.0823 56.1971 18.0823 57.3596 19.2448L61.7433 23.6768C62.7847 24.7425 62.8816 26.4378 61.9855 27.576C61.9128 27.6729 61.8402 27.7698 61.7433 27.8909L54.4049 35.2534L36.1919 53.5386Z" fill="#94E0AF"/>
</svg>
