<svg width="136" height="136" viewBox="0 0 136 136" fill="none" xmlns="http://www.w3.org/2000/svg">
<circle cx="68" cy="68" r="48" fill="white"/>
<path fill-rule="evenodd" clip-rule="evenodd" d="M63.9534 10.536L63.8973 3.0862L68.5972 3.05078L68.6017 3.65076L64.5518 3.68129L64.573 6.49121L68.4229 6.46219L68.4274 7.06218L64.5775 7.09119L64.5989 9.93111L68.6488 9.90059L68.6533 10.5006L63.9534 10.536ZM54.4853 4.31207L55.574 11.6821L56.217 11.5871L55.7859 8.66877L57.7307 8.38148L59.8179 11.0552L60.5797 10.9426L58.3914 8.17269C58.8524 7.96307 59.1974 7.65266 59.4264 7.24144C59.6611 6.82265 59.7394 6.34945 59.6615 5.82185C59.5962 5.37997 59.4365 5.00596 59.1824 4.69982C58.9348 4.39269 58.6194 4.17311 58.2359 4.04105C57.8525 3.909 57.4267 3.87756 56.9584 3.94673L54.4853 4.31207ZM57.5482 7.80194L55.6982 8.07521L55.216 4.81064L57.0659 4.53736C57.4023 4.48768 57.7093 4.51309 57.9869 4.61359C58.2636 4.70749 58.4925 4.86574 58.6737 5.08832C58.8539 5.30431 58.9683 5.57719 59.017 5.90694C59.0657 6.2367 59.036 6.5376 58.928 6.80964C58.8189 7.0751 58.646 7.29607 58.4093 7.47256C58.1715 7.64246 57.8845 7.75225 57.5482 7.80194ZM49.0715 13.6729C48.5816 13.8262 48.0956 13.8804 47.6136 13.8355C47.1296 13.7843 46.6746 13.6472 46.2486 13.4242C45.827 13.1928 45.4543 12.8833 45.1305 12.4956C44.811 12.0996 44.5677 11.6343 44.4006 11.0999C44.2314 10.559 44.1663 10.0381 44.2051 9.53696C44.2504 9.03385 44.3845 8.56931 44.6075 8.14332C44.8285 7.71097 45.1211 7.34005 45.4854 7.03056C45.856 6.71908 46.2862 6.48672 46.7761 6.3335C47.2597 6.18226 47.7425 6.12906 48.2245 6.17389C48.7066 6.21873 49.1584 6.35683 49.58 6.58819C50.006 6.81121 50.3819 7.11974 50.7077 7.51378C51.0315 7.90147 51.277 8.36255 51.4441 8.89702C51.6113 9.43149 51.6732 9.95346 51.63 10.4629C51.5848 10.966 51.4517 11.4337 51.2306 11.8661C51.014 12.2901 50.7214 12.661 50.3528 12.9789C49.9822 13.2903 49.5551 13.5217 49.0715 13.6729ZM48.8865 13.0812C49.3128 12.9479 49.6792 12.746 49.9858 12.4755C50.2923 12.2049 50.5281 11.8867 50.6931 11.5208C50.8644 11.1529 50.9623 10.7625 50.9869 10.3497C51.0095 9.93054 50.9551 9.51098 50.8238 9.09104C50.6944 8.67746 50.502 8.30804 50.2466 7.98278C49.9893 7.65115 49.6854 7.38297 49.3349 7.17824C48.9909 6.97151 48.6158 6.84433 48.2098 6.7967C47.8081 6.74071 47.3909 6.78038 46.9582 6.91569C46.5256 7.05101 46.1569 7.2571 45.8524 7.53397C45.5522 7.80248 45.3164 8.12069 45.1451 8.48861C44.9801 8.85453 44.8863 9.24708 44.8638 9.66626C44.8392 10.0791 44.8916 10.4923 45.0209 10.9059C45.1523 11.3258 45.3466 11.7016 45.604 12.0332C45.8594 12.3585 46.1591 12.6245 46.5032 12.8312C46.8536 13.0359 47.2319 13.1621 47.6379 13.2097C48.044 13.2574 48.4602 13.2145 48.8865 13.0812ZM35.7464 11.1953L39.0126 17.8911L42.6077 16.1375L42.3446 15.5982L39.3337 17.0669L36.3306 10.9103L35.7464 11.1953ZM31.9541 22.4762L27.8187 16.2793L29.8982 14.8916C30.2919 14.6288 30.6903 14.4752 31.0934 14.4306C31.4964 14.3861 31.8755 14.4497 32.2306 14.6215C32.5912 14.7896 32.8955 15.0594 33.1434 15.4309C33.3914 15.8024 33.5238 16.187 33.5406 16.5845C33.5593 16.9728 33.4725 17.3472 33.2804 17.7079C33.0901 18.0593 32.7954 18.3682 32.3961 18.6346L30.8573 19.6616L32.4948 22.1153L31.9541 22.4762ZM30.5242 19.1625L32.0797 18.1245C32.3625 17.9357 32.575 17.7138 32.7173 17.4585C32.8558 17.1978 32.9176 16.9241 32.9027 16.6375C32.8841 16.3454 32.7823 16.0607 32.5972 15.7834C32.4122 15.5061 32.1921 15.3084 31.9369 15.1902C31.6779 15.0664 31.4033 15.0212 31.1131 15.0547C30.8191 15.0825 30.5307 15.1908 30.2479 15.3796L28.6924 16.4176L30.5242 19.1625ZM25.1504 23.3472L25.8622 27.7989L26.4248 27.3029L25.8127 23.5163L29.4927 24.5982L30.0628 24.0956L25.7205 22.8446L25.0536 18.5799L24.491 19.0759L25.0659 22.6692L21.5731 21.6484L21.003 22.151L25.1504 23.3472ZM20.966 33.4498L15.3342 28.5728L18.411 25.0198L18.8646 25.4126L16.2133 28.4742L18.3375 30.3137L20.8579 27.4033L21.3114 27.7961L18.7911 30.7065L20.938 32.5656L23.5892 29.504L24.0428 29.8968L20.966 33.4498ZM13.3249 39.5862L14.1937 40.0814L14.5304 39.4907L13.6616 38.9954L13.3249 39.5862ZM11.2555 53.2455L4.18591 50.8952L5.66866 46.4352L6.23802 46.6245L4.96033 50.4677L7.62683 51.3542L8.84142 47.7008L9.41078 47.8901L8.19619 51.5435L10.8912 52.4394L12.1688 48.5962L12.7382 48.7855L11.2555 53.2455ZM2.39063 60.2571L9.73389 61.5136L9.84353 60.8729L6.93579 60.3754L7.26737 58.4376L10.4575 57.2851L10.5873 56.5261L7.27433 57.7448C7.21842 57.2415 7.03065 56.8171 6.71102 56.4715C6.38594 56.1183 5.96055 55.8967 5.43486 55.8068C4.99459 55.7314 4.58946 55.7669 4.21948 55.9133C3.85062 56.0531 3.54383 56.2847 3.29912 56.608C3.0544 56.9314 2.89213 57.3263 2.81229 57.7929L2.39063 60.2571ZM6.65979 58.431L6.34439 60.2742L3.09166 59.7176L3.40707 57.8744C3.46442 57.5392 3.58401 57.2553 3.76586 57.0227C3.94114 56.7889 4.16271 56.6205 4.43058 56.5176C4.69188 56.4135 4.98681 56.3895 5.31537 56.4458C5.64393 56.502 5.92069 56.6237 6.14565 56.811C6.36405 56.9972 6.52032 57.2302 6.61446 57.5101C6.70203 57.7889 6.71714 58.0958 6.65979 58.431ZM9.64432 68.2824C9.64229 68.7958 9.54706 69.2754 9.35863 69.7213C9.16353 70.1672 8.89531 70.5595 8.55397 70.8981C8.20599 71.2301 7.79828 71.4918 7.33085 71.6833C6.85678 71.8681 6.33975 71.9594 5.77976 71.9572C5.21309 71.9549 4.6968 71.8596 4.23088 71.671C3.76498 71.4759 3.3627 71.2076 3.02405 70.8663C2.67873 70.5249 2.41361 70.1339 2.22868 69.6931C2.04378 69.2457 1.95235 68.7654 1.95438 68.252C1.95638 67.7454 2.0516 67.2691 2.24003 66.8231C2.42846 66.3772 2.69667 65.9883 3.04465 65.6563C3.38599 65.3177 3.79371 65.0526 4.26781 64.8611C4.73523 64.6697 5.24894 64.575 5.80894 64.5772C6.36894 64.5794 6.88522 64.6782 7.35778 64.8734C7.82368 65.0685 8.22929 65.3368 8.57461 65.6782C8.91329 66.0129 9.17841 66.4039 9.36998 66.8513C9.55487 67.2987 9.64632 67.7758 9.64432 68.2824ZM9.02432 68.28C9.02609 67.8333 8.94438 67.423 8.77919 67.049C8.614 66.675 8.38193 66.3541 8.08299 66.0862C7.78407 65.8117 7.44157 65.6004 7.05549 65.4522C6.66274 65.3039 6.24637 65.229 5.80637 65.2272C5.37304 65.2255 4.96275 65.2972 4.57551 65.4424C4.1816 65.5875 3.83411 65.7961 3.53303 66.0682C3.23197 66.3337 2.99738 66.6528 2.82924 67.0255C2.65445 67.3914 2.56617 67.8011 2.56437 68.2544C2.56258 68.7078 2.64761 69.1214 2.81947 69.4954C2.98468 69.8628 3.21675 70.1837 3.51567 70.4582C3.81461 70.7261 4.16046 70.9341 4.55321 71.0823C4.93929 71.2305 5.349 71.3055 5.78233 71.3072C6.22232 71.3089 6.63928 71.2372 7.03319 71.0921C7.42043 70.947 7.76458 70.7417 8.06563 70.4762C8.36671 70.2041 8.60132 69.8816 8.76946 69.509C8.9376 69.1363 9.02256 68.7266 9.02432 68.28ZM134.003 68.5657L126.572 68.0362L126.238 72.7244L126.836 72.767L127.124 68.7272L129.957 68.9291L129.683 72.7693L130.282 72.812L130.555 68.9717L133.358 69.1714L133.07 73.2112L133.669 73.2538L134.003 68.5657ZM129.218 78.7948L126.002 75.6355L125.844 76.3686L128.585 79.052L124.981 80.3666L124.821 81.1095L129.058 79.5377L132.127 82.5731L132.285 81.84L129.689 79.2901L133.105 78.0375L133.265 77.2946L129.218 78.7948ZM124.198 83.649L131.183 86.242L130.312 88.5857C130.148 89.0295 129.915 89.3876 129.615 89.6601C129.315 89.9326 128.97 90.1035 128.582 90.1726C128.191 90.248 127.787 90.208 127.368 90.0525C126.949 89.8971 126.616 89.6633 126.369 89.3512C126.127 89.0477 125.977 88.6936 125.921 88.2888C125.869 87.8926 125.927 87.4695 126.094 87.0195L126.738 85.2852L123.972 84.2584L124.198 83.649ZM127.3 85.494L126.649 87.2471C126.531 87.5658 126.489 87.8703 126.524 88.1604C126.564 88.4529 126.675 88.7108 126.855 88.9341C127.041 89.1598 127.291 89.3307 127.603 89.4467C127.916 89.5627 128.21 89.5937 128.486 89.5397C128.769 89.4881 129.017 89.3636 129.233 89.1663C129.455 88.9713 129.625 88.7144 129.743 88.3956L130.394 86.6426L127.3 85.494ZM127.712 94.9829L121.159 91.4397L119.256 94.9584L119.784 95.2438L121.377 92.2969L127.403 95.5547L127.712 94.9829ZM115.448 100.615C115.759 100.207 116.124 99.8819 116.543 99.6398C116.968 99.4019 117.419 99.2508 117.895 99.1865C118.373 99.1317 118.856 99.1688 119.344 99.298C119.834 99.4366 120.301 99.6756 120.747 100.015C121.197 100.359 121.551 100.746 121.809 101.178C122.063 101.614 122.222 102.071 122.287 102.547C122.356 103.028 122.332 103.5 122.213 103.963C122.091 104.431 121.874 104.87 121.563 105.278C121.256 105.681 120.892 106.003 120.473 106.245C120.054 106.487 119.605 106.636 119.128 106.691C118.651 106.755 118.166 106.72 117.672 106.587C117.184 106.458 116.717 106.223 116.272 105.884C115.827 105.544 115.474 105.154 115.215 104.713C114.961 104.277 114.8 103.818 114.73 103.338C114.662 102.866 114.686 102.395 114.803 101.922C114.926 101.454 115.14 101.018 115.448 100.615ZM115.941 100.991C115.67 101.346 115.488 101.723 115.394 102.121C115.3 102.519 115.291 102.915 115.368 103.309C115.441 103.708 115.587 104.083 115.805 104.434C116.029 104.789 116.316 105.1 116.666 105.367C117.011 105.63 117.381 105.82 117.778 105.938C118.179 106.06 118.582 106.103 118.987 106.067C119.387 106.037 119.766 105.924 120.125 105.728C120.485 105.542 120.803 105.268 121.078 104.908C121.353 104.547 121.534 104.166 121.623 103.764C121.713 103.372 121.721 102.976 121.648 102.576C121.571 102.182 121.421 101.808 121.197 101.453C120.979 101.102 120.697 100.795 120.352 100.532C120.003 100.265 119.627 100.071 119.225 99.9491C118.829 99.8313 118.43 99.7875 118.03 99.8176C117.626 99.8531 117.244 99.9687 116.885 100.165C116.526 100.36 116.212 100.636 115.941 100.991ZM116.39 111.386L111.264 105.98L110.792 106.427L112.822 108.568L111.395 109.921L108.151 108.932L107.592 109.462L110.975 110.471C110.718 110.908 110.614 111.36 110.663 111.828C110.711 112.306 110.919 112.738 111.286 113.125C111.593 113.449 111.939 113.663 112.323 113.768C112.702 113.877 113.086 113.876 113.476 113.763C113.866 113.651 114.232 113.432 114.576 113.106L116.39 111.386ZM111.878 110.29L113.235 109.003L115.505 111.398L114.148 112.685C113.902 112.919 113.636 113.074 113.351 113.152C113.07 113.234 112.792 113.236 112.516 113.158C112.244 113.084 111.994 112.927 111.765 112.685C111.535 112.443 111.387 112.18 111.319 111.895C111.256 111.615 111.27 111.335 111.362 111.055C111.459 110.779 111.631 110.524 111.878 110.29ZM105.128 111.648L109.441 117.722L105.609 120.443L105.262 119.954L108.564 117.609L106.937 115.318L103.798 117.547L103.451 117.058L106.59 114.829L104.945 112.513L101.643 114.858L101.296 114.369L105.128 111.648ZM95.2472 121.522L94.8319 120.613L94.2133 120.895L94.6286 121.805L95.2472 121.522ZM85.4735 121.995L87.2446 129.231L82.6794 130.349L82.5367 129.766L86.4706 128.803L85.8026 126.074L82.063 126.989L81.9203 126.406L85.66 125.491L84.9848 122.732L81.0509 123.695L80.9083 123.112L85.4735 121.995ZM76.0572 127.808L78.053 123.765L77.3072 123.844L75.6149 127.286L73.2399 124.274L72.4841 124.354L75.3014 127.888L73.3772 131.751L74.123 131.672L75.7337 128.409L77.9915 131.263L78.7472 131.183L76.0572 127.808ZM69.6624 124.554L69.4659 132.001L66.9668 131.935C66.4936 131.923 66.0796 131.818 65.7246 131.622C65.3697 131.426 65.0967 131.156 64.9057 130.81C64.7081 130.465 64.6152 130.069 64.627 129.623C64.6387 129.176 64.7524 128.786 64.968 128.451C65.1767 128.123 65.4635 127.867 65.8285 127.684C66.1866 127.506 66.6056 127.424 67.0855 127.437L68.9348 127.486L69.0126 124.537L69.6624 124.554ZM68.919 128.085L67.0496 128.036C66.7098 128.027 66.4081 128.086 66.1447 128.212C65.8811 128.345 65.6727 128.533 65.5196 128.776C65.3663 129.025 65.2853 129.317 65.2765 129.65C65.2677 129.983 65.3334 130.272 65.4737 130.515C65.6138 130.766 65.8121 130.961 66.0685 131.101C66.3247 131.248 66.6227 131.326 66.9626 131.335L68.832 131.384L68.919 128.085ZM60.1057 131.541L61.2771 124.184L57.3269 123.555L57.2325 124.148L60.5409 124.674L59.4637 131.439L60.1057 131.541ZM50.7459 121.849C51.2353 122.004 51.6647 122.238 52.0341 122.55C52.4015 122.87 52.696 123.243 52.9174 123.669C53.1305 124.101 53.2587 124.568 53.302 125.071C53.337 125.579 53.27 126.099 53.1008 126.633C52.9297 127.173 52.6847 127.638 52.3658 128.026C52.0405 128.413 51.6645 128.717 51.2377 128.938C50.8089 129.166 50.3565 129.302 49.8807 129.347C49.3985 129.39 48.9128 129.334 48.4234 129.179C47.9404 129.026 47.5142 128.793 47.1447 128.481C46.7753 128.168 46.4841 127.796 46.271 127.365C46.0496 126.938 45.9182 126.47 45.8768 125.96C45.8334 125.457 45.8963 124.938 46.0655 124.404C46.2346 123.87 46.4828 123.407 46.81 123.014C47.1353 122.628 47.5123 122.321 47.9412 122.093C48.3616 121.869 48.8139 121.733 49.2981 121.684C49.7803 121.641 50.2629 121.696 50.7459 121.849ZM50.5587 122.44C50.1329 122.305 49.7168 122.26 49.3106 122.306C48.9044 122.353 48.5288 122.478 48.184 122.684C47.8328 122.887 47.529 123.151 47.2724 123.475C47.0137 123.806 46.818 124.181 46.6851 124.601C46.5542 125.014 46.5003 125.427 46.5233 125.84C46.5444 126.259 46.6399 126.653 46.8098 127.021C46.9734 127.388 47.208 127.707 47.5136 127.979C47.8108 128.255 48.1755 128.461 48.6076 128.598C49.0398 128.735 49.46 128.777 49.8682 128.725C50.2681 128.676 50.6437 128.551 50.9948 128.347C51.3396 128.142 51.6414 127.874 51.9 127.543C52.1566 127.219 52.3503 126.85 52.4812 126.437C52.6141 126.017 52.67 125.598 52.649 125.179C52.6259 124.766 52.5326 124.376 52.369 124.01C52.1991 123.641 51.9613 123.321 51.6557 123.049C51.3502 122.778 50.9845 122.575 50.5587 122.44ZM40.9555 126.377L44.2948 119.717L43.7138 119.426L42.3915 122.063L40.6341 121.182L40.4599 117.794L39.7716 117.449L39.9733 120.973C39.4755 120.88 39.0148 120.937 38.5912 121.142C38.1587 121.35 37.8229 121.692 37.5838 122.169C37.3836 122.569 37.2997 122.966 37.332 123.363C37.3584 123.757 37.4906 124.117 37.7288 124.446C37.9669 124.774 38.2976 125.044 38.7207 125.256L40.9555 126.377ZM40.4509 121.761L42.1225 122.599L40.6434 125.549L38.9717 124.711C38.6678 124.559 38.431 124.362 38.2613 124.12C38.0887 123.884 37.9921 123.623 37.9715 123.337C37.948 123.057 38.011 122.768 38.1604 122.47C38.3098 122.172 38.5068 121.942 38.7515 121.781C38.9932 121.627 39.2616 121.545 39.5567 121.536C39.8489 121.534 40.147 121.609 40.4509 121.761ZM36.8841 115.872L32.637 121.992L28.7755 119.313L29.1176 118.82L32.445 121.129L34.0469 118.82L30.8838 116.625L31.2259 116.132L34.389 118.327L36.008 115.994L32.6806 113.685L33.0226 113.192L36.8841 115.872ZM24.2452 109.939L24.9617 109.241L24.4874 108.754L23.7708 109.451L24.2452 109.939ZM20.5054 100.925L14.2641 104.993L11.6977 101.056L12.2004 100.728L14.4119 104.121L16.766 102.587L14.6637 99.3615L15.1664 99.0339L17.2686 102.259L19.6479 100.709L17.4364 97.3156L17.9391 96.988L20.5054 100.925ZM11.9169 94.0113L16.3901 94.5727L16.0712 93.8938L12.2645 93.4227L14.3322 90.192L14.009 89.5041L11.5938 93.3235L7.31276 92.7713L7.63165 93.4501L11.2424 93.9029L9.28564 96.971L9.60879 97.6589L11.9169 94.0113ZM12.9893 87.1754L5.8673 89.3617L5.13365 86.9718C4.99474 86.5193 4.96169 86.0936 5.03449 85.6946C5.1073 85.2957 5.27687 84.9508 5.5432 84.6598C5.80759 84.3625 6.15328 84.1482 6.58028 84.0172C7.00728 83.8861 7.41362 83.8694 7.79929 83.9672C8.17664 84.0606 8.51055 84.251 8.80102 84.5384C9.08316 84.8214 9.29466 85.1923 9.43552 85.6512L9.97842 87.4198L12.7985 86.554L12.9893 87.1754ZM9.40484 87.5958L8.85607 85.8082C8.75629 85.4831 8.60452 85.2159 8.40076 85.0065C8.19062 84.799 7.94613 84.6614 7.66728 84.5936C7.38206 84.5277 7.08012 84.5437 6.76147 84.6415C6.44281 84.7393 6.19028 84.8935 6.00389 85.1042C5.81113 85.3168 5.68916 85.5669 5.638 85.8546C5.58046 86.1442 5.60158 86.4516 5.70136 86.7766L6.25013 88.5643L9.40484 87.5958ZM3.32847 80.4055L10.686 79.2353L10.0578 75.285L9.4652 75.3792L9.99136 78.6877L3.22638 79.7635L3.32847 80.4055ZM77.8477 8.05087L77.6683 9.03465L78.3373 9.15662L78.5167 8.17284L77.8477 8.05087ZM86.2443 13.223L88.935 6.27586L93.3177 7.97335L93.101 8.53285L89.3244 7.07012L88.3095 9.69045L91.8996 11.0809L91.6829 11.6404L88.0928 10.2499L87.0671 12.8982L90.8437 14.361L90.627 14.9205L86.2443 13.223ZM97.4406 13.8915L93.4884 16.0604L94.1448 16.4232L97.5044 14.5721L97.7245 18.4016L98.3896 18.7692L98.1058 14.2591L101.897 12.1956L101.241 11.8328L98.0506 13.5838L97.836 9.95111L97.1709 9.58348L97.4406 13.8915ZM100.608 20.0647L105.053 14.0855L107.059 15.577C107.439 15.8593 107.718 16.1828 107.895 16.5474C108.073 16.912 108.14 17.2903 108.098 17.6825C108.061 18.0787 107.909 18.456 107.643 18.8145C107.376 19.173 107.059 19.427 106.69 19.5766C106.331 19.7248 105.949 19.7691 105.545 19.7095C105.15 19.6485 104.76 19.4749 104.374 19.1885L102.89 18.0849L101.13 20.4524L100.608 20.0647ZM103.248 17.6033L104.748 18.7189C105.021 18.9217 105.302 19.0472 105.59 19.0953C105.882 19.138 106.161 19.1042 106.426 18.9937C106.695 18.8779 106.928 18.6862 107.127 18.4187C107.326 18.1512 107.438 17.8774 107.464 17.5972C107.493 17.3118 107.443 17.038 107.314 16.7759C107.189 16.5084 106.99 16.2733 106.717 16.0704L105.216 14.9549L103.248 17.6033ZM112.392 19.7705L107.188 25.1015L110.05 27.8956L110.469 27.4663L108.072 25.1262L112.857 20.2245L112.392 19.7705ZM114.502 33.1322C114.194 32.7218 113.98 32.2819 113.861 31.8126C113.748 31.3393 113.725 30.8647 113.792 30.3887C113.869 29.9139 114.037 29.4592 114.294 29.0244C114.56 28.5909 114.917 28.206 115.365 27.8697C115.818 27.5295 116.287 27.2939 116.773 27.1629C117.262 27.0373 117.744 27.0084 118.221 27.0761C118.702 27.1398 119.149 27.2916 119.563 27.5313C119.98 27.7764 120.343 28.1042 120.651 28.5147C120.956 28.9199 121.167 29.3571 121.286 29.8263C121.405 30.2956 121.426 30.7676 121.349 31.2423C121.281 31.7184 121.116 32.1758 120.854 32.6146C120.597 33.0494 120.244 33.4349 119.796 33.7712C119.349 34.1075 118.877 34.3404 118.383 34.47C117.894 34.5956 117.408 34.6266 116.927 34.5629C116.455 34.5005 116.007 34.3487 115.585 34.1076C115.167 33.8625 114.806 33.5374 114.502 33.1322ZM114.998 32.76C115.266 33.1171 115.579 33.395 115.936 33.5934C116.294 33.7919 116.672 33.9077 117.072 33.9408C117.476 33.9792 117.877 33.941 118.274 33.8261C118.677 33.7072 119.054 33.5156 119.406 33.2514C119.753 32.9912 120.036 32.6864 120.258 32.3369C120.484 31.9835 120.635 31.6074 120.711 31.2087C120.791 30.8153 120.785 30.4193 120.694 30.0207C120.613 29.6234 120.436 29.2435 120.164 28.881C119.891 28.5185 119.574 28.24 119.211 28.0455C118.858 27.8524 118.479 27.7366 118.075 27.6982C117.675 27.6651 117.274 27.708 116.871 27.8269C116.474 27.9418 116.102 28.1293 115.755 28.3895C115.403 28.6537 115.114 28.9626 114.888 29.316C114.667 29.6655 114.516 30.0369 114.436 30.4303C114.361 30.829 114.368 31.2277 114.459 31.6263C114.55 32.0249 114.73 32.4028 114.998 32.76ZM125.143 35.1719L118.537 38.6163L118.838 39.1926L121.453 37.8287L122.362 39.5719L120.521 42.4202L120.877 43.103L122.776 40.1277C123.125 40.4945 123.532 40.7187 123.995 40.8002C124.468 40.8847 124.94 40.8036 125.413 40.557C125.809 40.3505 126.11 40.077 126.316 39.7366C126.525 39.402 126.629 39.032 126.629 38.6265C126.628 38.221 126.518 37.8084 126.299 37.3886L125.143 35.1719ZM122.85 39.2095L121.985 37.5513L124.912 36.0256L125.776 37.6838C125.933 37.9853 126.01 38.2836 126.006 38.5789C126.008 38.8711 125.934 39.1392 125.783 39.3833C125.638 39.6243 125.417 39.8219 125.122 39.976C124.826 40.1301 124.532 40.2007 124.24 40.1878C123.953 40.1718 123.688 40.0809 123.443 39.915C123.205 39.7461 123.007 39.511 122.85 39.2095ZM122.277 45.9859L129.319 43.5543L130.853 47.9969L130.285 48.1927L128.964 44.3645L126.307 45.2817L127.564 48.9208L126.997 49.1167L125.74 45.4775L123.056 46.4045L124.378 50.2327L123.811 50.4285L122.277 45.9859ZM128.939 58.1178L127.948 58.2515L128.038 58.9254L129.03 58.7917L128.939 58.1178Z" fill="white"/>
</svg>
